name Walk8.mot
datacolumns 19
datarows 15
range 1.84500000 1.85900000
endheader

                time	   L_ground_force_vx	   L_ground_force_vy	   L_ground_force_vz	   L_ground_force_px	   L_ground_force_py	   L_ground_force_pz	   R_ground_force_vx	   R_ground_force_vy	   R_ground_force_vz	   R_ground_force_px	   R_ground_force_py	   R_ground_force_pz	   L_ground_torque_x	   L_ground_torque_y	   L_ground_torque_z	   R_ground_torque_x	   R_ground_torque_y	   R_ground_torque_z	
          1.84500000	          0.00036005	          0.00022084	         -0.00127669	         -0.00009963	          0.00000000	         -0.00003820	        -28.35696084	        535.87937068	        -41.80101279	          0.26799524	          0.00000000	          0.09281759	          0.00000000	          0.00007189	          0.00000000	          0.00000000	         -0.45329019	          0.00000000	
          1.84600000	         -0.00021365	         -0.00147881	         -0.00123605	         -0.00009216	          0.00000000	         -0.00003541	        -27.93380016	        534.30460034	        -41.75681747	          0.26850278	          0.00000000	          0.09294752	          0.00000000	          0.00006572	          0.00000000	          0.00000000	         -0.46599985	          0.00000000	
          1.84700000	         -0.00073776	         -0.00302836	         -0.00119420	         -0.00008498	          0.00000000	         -0.00003272	        -27.51511233	        532.75404864	        -41.71036182	          0.26900859	          0.00000000	          0.09307614	          0.00000000	          0.00005983	          0.00000000	          0.00000000	         -0.47813064	          0.00000000	
          1.84800000	         -0.00121452	         -0.00443472	         -0.00115139	         -0.00007810	          0.00000000	         -0.00003014	        -27.10077145	        531.22805786	        -41.66157057	          0.26951256	          0.00000000	          0.09320341	          0.00000000	          0.00005421	          0.00000000	          0.00000000	         -0.48968266	          0.00000000	
          1.84900000	         -0.00164615	         -0.00570475	         -0.00110787	         -0.00007150	          0.00000000	         -0.00002766	        -26.69064513	        529.72695485	        -41.61038326	          0.27001455	          0.00000000	          0.09332928	          0.00000000	          0.00004886	          0.00000000	          0.00000000	         -0.50065774	          0.00000000	
          1.85000000	         -0.00203487	         -0.00684523	         -0.00106386	         -0.00006519	          0.00000000	         -0.00002529	        -26.28459455	        528.25104927	        -41.55675392	          0.27051446	          0.00000000	          0.09345370	          0.00000000	          0.00004379	          0.00000000	          0.00000000	         -0.51105913	          0.00000000	
          1.85100000	         -0.00238284	         -0.00786288	         -0.00101958	         -0.00005917	          0.00000000	         -0.00002303	        -25.88247449	        526.80063193	        -41.50065057	          0.27101215	          0.00000000	          0.09357664	          0.00000000	          0.00003898	          0.00000000	          0.00000000	         -0.52089118	          0.00000000	
          1.85200000	         -0.00269223	         -0.00876429	         -0.00097521	         -0.00005345	          0.00000000	         -0.00002087	        -25.48413368	        525.37597376	        -41.44205501	          0.27150750	          0.00000000	          0.09369807	          0.00000000	          0.00003443	          0.00000000	          0.00000000	         -0.53015898	          0.00000000	
          1.85300000	         -0.00296513	         -0.00955595	         -0.00093093	         -0.00004800	          0.00000000	         -0.00001882	        -25.08941533	        523.97732587	        -41.38096279	          0.27200038	          0.00000000	          0.09381794	          0.00000000	          0.00003014	          0.00000000	          0.00000000	         -0.53886824	          0.00000000	
          1.85400000	         -0.00320363	         -0.01024418	         -0.00088689	         -0.00004284	          0.00000000	         -0.00001687	        -24.69815804	        522.60492057	        -41.31738335	          0.27249066	          0.00000000	          0.09393623	          0.00000000	          0.00002610	          0.00000000	          0.00000000	         -0.54702523	          0.00000000	
          1.85500000	         -0.00340974	         -0.01083519	         -0.00084325	         -0.00003795	          0.00000000	         -0.00001502	        -24.31019676	        521.25897295	        -41.25134024	          0.27297820	          0.00000000	          0.09405290	          0.00000000	          0.00002230	          0.00000000	          0.00000000	         -0.55463684	          0.00000000	
          1.85600000	         -0.00358545	         -0.01133500	         -0.00080013	         -0.00003334	          0.00000000	         -0.00001327	        -23.92536361	        519.93968244	        -41.18287117	          0.27346287	          0.00000000	          0.09416793	          0.00000000	          0.00001875	          0.00000000	          0.00000000	         -0.56171070	          0.00000000	
          1.85700000	         -0.00373267	         -0.01174948	         -0.00075765	         -0.00002899	          0.00000000	         -0.00001162	        -23.54348852	        518.64723335	        -41.11202802	          0.27394453	          0.00000000	          0.09428128	          0.00000000	          0.00001542	          0.00000000	          0.00000000	         -0.56825521	          0.00000000	
          1.85800000	         -0.00385326	         -0.01208433	         -0.00071592	         -0.00002491	          0.00000000	         -0.00001007	        -23.16439950	        517.38179426	        -41.03887673	          0.27442304	          0.00000000	          0.09439293	          0.00000000	          0.00001232	          0.00000000	          0.00000000	         -0.57427951	          0.00000000	
          1.85900000	         -0.00394904	         -0.01234504	         -0.00067504	         -0.00002107	          0.00000000	         -0.00000861	        -22.78792298	        516.14351655	        -40.96349698	          0.27489826	          0.00000000	          0.09450285	          0.00000000	          0.00000944	          0.00000000	          0.00000000	         -0.57979338	          0.00000000	
